<?xml version="1.0" encoding="utf-8"?>
<!-- Generator: Adobe Illustrator 21.0.0, SVG Export Plug-In . SVG Version: 6.00 Build 0)  -->
<svg version="1.1" id="Layer_1" xmlns="http://www.w3.org/2000/svg" xmlns:xlink="http://www.w3.org/1999/xlink" x="0px" y="0px"
	 viewBox="50 100 650 350" style="enable-background: new 0 0 742 500" xml:space="preserve">
<style type="text/css">
	.st0{fill:#FFFFFF;}
	.st1{fill:#FFFFFF;}
</style>
<g>
	<path class="st0" d="M 181.9 204.1 c 0.8 -0.7 1.6 -1.5 2.4 -2.2 C 120.8 200.3 70 218.7 70 218.7 s 16.6 34.8 51.7 71.2 c 0.6 -1.5 1.3 -3 2 -4.5 C 137.5 255 157.6 226.9 181.9 204.1 z"/>
	<g>
		<path class="st0" d="M 226.2 268.9 c -9 -13.1 -16.3 -26.5 -22.3 -39.9 c -22.9 19.8 -41.7 42.9 -56 68.6 l 0 0 l 0 0 c -2.1 3.7 -4.1 7.6 -6 11.4 c 20.5 17.7 45.6 34.4 75.5 46.1 c 76.3 29.8 125 17.6 142.8 -15.5 c -8.1 3.9 -17.3 6.1 -27.2 6.1 C 302.7 345.8 264.9 325.5 226.2 268.9 z"
			/>
		<path class="st0" d="M 582.3 302.2 L 582.3 302.2 c -12.9 -24.5 -29.8 -46.7 -50.3 -65.9 c -6.9 13.9 -15.3 27.7 -25.4 40.8 c -13.1 16.9 -26.2 30.9 -39.4 41.8 c -13.2 11 -26.5 18.9 -39.7 23.7 c -9.5 3.5 -18.9 5.2 -27.9 5.2 c -10.7 0 -20.9 -2.5 -30 -7.3 c 17.1 31.2 63.7 45 138.5 23 c 32 -9.4 59.9 -25.5 83 -43.1 C 588.4 314.2 585.4 308.1 582.3 302.2 L 582.3 302.2 z"/>
		<path class="st0" d="M 555.4 212.8 c 21.4 22.3 39.2 48.9 51.5 77.6 c 1.8 4.2 3.4 8.5 5 12.7 c 35.4 -31.9 54.9 -62.8 54.9 -62.8 S 619.6 216.4 555.4 212.8 z"/>
		<path class="st0" d="M 466.2 151.8 L 466.2 151.8 L 466.2 151.8 c 25.2 10.7 48 24.4 67.9 41.1 c 14.3 -44.2 16.1 -85.1 16.1 -103.1 v -1.4 c -18.1 4.2 -66.5 19.2 -110.6 51 c -0.1 0.1 -3 2.1 -3.1 2.1 c 1.3 0.4 1.5 0.4 3.4 1 C 448.9 145.2 457.7 148.3 466.2 151.8 z"/>
		<path class="st0" d="M 447.2 228.9 c -1.2 11.4 -3.1 22 -5.6 31.7 c -4.3 16.6 -10.3 30.9 -18.2 42.5 c -9.6 14.3 -21.8 24.2 -35.6 29.2 c 10.5 2.5 22.3 1.5 34.7 -3 c 23.5 -8.7 48.7 -29.7 72.8 -61 c 10.3 -13.3 18.7 -27.6 25.5 -42 c -21.7 -18.1 -46.4 -32.2 -72.7 -41.9 c 0.7 6.2 1 12.5 0.8 19.1 C 448.8 212.4 448.2 220.9 447.2 228.9 z"/>
		<path class="st0" d="M 215.4 219.8 c 5.9 13.8 13.3 27.7 22.5 41.2 c 34.6 50.5 72.6 75.7 103.8 70 c -11.2 -4.7 -20.7 -12.5 -28.1 -22.1 c -26.6 -34.5 -28.7 -85.9 -22.4 -128.1 C 264 189.3 238.2 202.5 215.4 219.8 z"/>
		<path class="st0" d="M 267.1 150 c 11 -4.3 22.3 -7.8 33.8 -10.6 c 2.3 -0.5 4.3 -0.8 4.3 -0.8 c -0.3 -0.2 -3.9 -3.3 -4.2 -3.6 c -11.9 -9.3 -27.3 -18.9 -38.9 -25.6 c -29.5 -17.3 -56.2 -27 -68.9 -31 c -1.5 17.2 -3.1 59.7 10.1 107.3 C 222.5 171.2 243.8 159.2 267.1 150 z"/>
		<path class="st0" d="M 366.8 131.7 L 366.8 131.7 L 366.8 131.7 c 19.5 0.2 38.9 2.6 57.7 6.9 c -14.5 -46.9 -40.3 -83.3 -51.1 -97.2 c -11.9 13 -40.3 47.3 -57.4 94.8 c 16.3 -3 33 -4.5 50 -4.5 L 366.8 131.7 z"/>
		<path class="st0" d="M 385.4 318.4 c 10 -4 18.9 -11.3 26.3 -21.7 c 10 -14 16.9 -33.5 20.4 -57 c 1.5 -9.4 2.3 -19.5 2.6 -30.1 c 0.3 -10.2 -0.2 -20.2 -1.4 -30 c -21.8 -6.5 -44.4 -9.9 -66.9 -9.9 h -0.1 l -0.1 0 c -1.2 0 -2.5 0 -3.7 0 c -19.3 0 -38.7 2.5 -57.6 7.2 c -1.6 9.4 -2.6 19.1 -3 29.1 c -0.3 11.4 0 22.1 0.9 32 c 4 40.7 18.9 68.8 41.8 79.2 c 3.6 1.7 7.4 2.9 11.4 3.6 c 2.1 0.4 4.3 0.7 6.5 0.9 c 0.1 0 0.3 0 0.5 0 c 0.6 0 1.2 0.1 1.8 0.1 c 0.4 0 0.9 0 1.3 0 h 1 c 2.2 0 4.3 -0.2 6.4 -0.4 C 377.8 320.9 381.7 319.9 385.4 318.4 z"/>
		<path class="st1" d="M 605 309.2 c -1.8 -5.2 -3.8 -10.4 -6 -15.4 c -12.8 -29.7 -31.4 -57.1 -54.7 -80 c -0.5 -0.5 -0.9 -0.9 -1.4 -1.4 c -3.8 -3.7 -7.7 -7.4 -11.8 -10.9 c -20.3 -17.4 -43.5 -31.4 -68.2 -41.9 c -6.8 -2.8 -13.7 -5.3 -20.8 -7.5 c -4.9 -1.6 -9.9 -3 -15 -4.2 c -19.8 -4.9 -40.1 -7.5 -60.5 -7.7 c -0.3 0 -0.5 0 -0.8 0 c -17.8 0 -35.7 1.8 -53.2 5.3 c -4.9 1 -9.7 2.1 -14.5 3.4 c -9.5 2.5 -18.8 5.5 -28 9.1 c -23 9.1 -44.8 21.4 -64.2 36.6 c -4.1 3.2 -8 6.5 -11.9 9.9 c -2.2 1.9 -4.3 3.9 -6.4 5.9 c -23.8 22.4 -43 49.4 -56.4 78.7 c -1.1 2.5 -2.2 5 -3.2 7.5 c -11.2 27.3 -17.6 56.5 -18.2 85.5 c 4.6 -27.6 13 -54.2 25.4 -78.7 c 1.7 -3.3 3.4 -6.5 5.2 -9.7 c 15 -27.2 35 -51.3 58.2 -71.2 c 0.6 -0.5 1.1 -1 1.7 -1.4 c 3.8 -3.2 7.7 -6.3 11.7 -9.3 c 24.3 -18.2 51.8 -31.8 80.8 -40.3 c 4.7 -1.4 9.3 -2.6 14.1 -3.7 c 18.3 -4.3 37 -6.5 55.8 -6.5 c 1.3 0 2.6 0 3.8 0 c 0 0 0 0 0 0 c 22.1 0 44.2 3.2 65.5 9.1 c 5 1.4 9.9 3 14.8 4.7 c 28.1 9.8 54.5 24.5 77.6 43.4 c 2.9 2.4 5.8 4.9 8.6 7.4 c 0.9 0.8 1.8 1.6 2.7 2.5 c 21.6 20 40.1 43.6 53.9 70 c 2.9 5.5 5.7 11.1 8.2 16.8 c 10.1 22.7 16.9 47.1 20.6 72.2 C 618.6 360.8 613.8 334.4 605 309.2 z"/>
		<g>
			<path class="st1" d="M 79.7 396.6 V 451 h -7.1 v -54.4 H 79.7 z"/>
			<path class="st1" d="M 156.7 396.6 V 452 h -0.4 l -43.2 -42.5 h -0.3 V 451 h -3.6 v -55.4 h 0.4 l 43.2 42.5 h 0.3 v -41.6 H 156.7 z"/>
			<path class="st1" d="M 230.6 396.6 V 452 h -0.4 L 187 409.4 h -0.3 V 451 h -3.6 v -55.4 h 0.4 l 43.2 42.5 h 0.3 v -41.6 H 230.6 z"/>
			<path class="st1" d="M 292.1 396.6 v 4.3 h -28.1 v 19.5 h 24.1 v 3.6 h -24.1 v 22.8 h 28.1 v 4.3 H 257 v -54.4 H 292.1 z"/>
			<path class="st1" d="M 329.2 396.6 c 3.5 0 6.4 0.5 8.6 1.4 c 2.3 1 4.1 2.2 5.4 3.6 c 1.3 1.4 2.3 3 2.8 4.6 c 0.5 1.7 0.8 3.2 0.8 4.6 c 0 1.6 -0.3 3.1 -0.8 4.8 c -0.5 1.6 -1.3 3.1 -2.5 4.5 c -1.1 1.4 -2.6 2.6 -4.4 3.5 c -1.8 0.9 -3.9 1.5 -6.4 1.6 v 0.3 l 0.8 0.4 c 0.6 0.3 1.2 0.7 1.6 1.2 c 0.4 0.5 1 1.2 1.7 2.3 s 1.6 2.5 2.8 4.4 c 1.2 1.9 2.9 4.4 5 7.6 c 0.7 1.1 1.4 2.1 2.1 2.9 c 0.7 0.9 1.4 1.6 2.1 2.2 c 0.7 0.6 1.5 1 2.3 1.4 c 0.8 0.3 1.8 0.5 2.9 0.5 c 0.3 0 0.5 0 0.8 0 c 0.3 0 0.5 -0.1 0.8 -0.1 v 2.9 c -0.7 0.4 -1.5 0.7 -2.2 0.8 c -0.7 0.1 -1.7 0.2 -2.8 0.2 c -1.6 0 -2.9 -0.2 -4 -0.6 c -1.1 -0.4 -2.1 -1 -3 -1.7 c -0.9 -0.7 -1.7 -1.5 -2.4 -2.5 c -0.7 -1 -1.5 -2.1 -2.3 -3.3 l -6.2 -9.1 c -0.9 -1.5 -1.7 -2.7 -2.4 -3.7 c -0.7 -1 -1.4 -1.8 -2.2 -2.4 c -0.8 -0.6 -1.7 -1.1 -2.6 -1.3 c -1 -0.3 -2.2 -0.4 -3.6 -0.4 h -3.4 v 24 h -7.1 v -54.4 H 329.2 z M 318.7 423.5 h 8 c 2.1 0 3.9 -0.4 5.5 -1.1 s 2.9 -1.7 4 -2.8 c 1.1 -1.2 1.9 -2.5 2.5 -3.9 c 0.5 -1.4 0.8 -2.8 0.8 -4.2 c 0 -1.7 -0.3 -3.2 -0.9 -4.6 c -0.6 -1.4 -1.5 -2.6 -2.6 -3.6 c -1.1 -1 -2.5 -1.8 -4.1 -2.4 c -1.6 -0.6 -3.4 -0.9 -5.3 -0.9 h -7.9 V 423.5 z"/>
			<path class="st1" d="M 410.2 451 v -54.4 h 7.1 v 50.2 h 28.1 v 4.3 H 410.2 z"/>
			<path class="st1" d="M 475 396.6 V 451 h -7.1 v -54.4 H 475 z"/>
			<path class="st1" d="M 554.1 451 h -6.6 v -3.2 c -2 1 -4.5 2 -7.5 2.8 c -3 0.9 -6.5 1.3 -10.4 1.3 c -5.2 0 -9.7 -0.8 -13.4 -2.4 c -3.7 -1.6 -6.8 -3.8 -9.2 -6.5 c -2.4 -2.7 -4.2 -5.8 -5.4 -9.3 c -1.2 -3.4 -1.8 -7 -1.8 -10.7 c 0 -4.3 0.8 -8.2 2.3 -11.5 c 1.5 -3.4 3.6 -6.3 6.3 -8.6 c 2.7 -2.3 5.9 -4.1 9.6 -5.4 c 3.7 -1.2 7.8 -1.9 12.2 -1.9 c 3.8 0 7.2 0.4 10 1.3 c 2.8 0.9 5.2 1.9 7.1 3.1 c 1.9 1.2 3.4 2.6 4.5 4 c 1.1 1.4 1.9 2.7 2.4 3.8 h -5.6 c -0.3 -1.1 -1 -2.2 -2.1 -3.2 c -1.1 -1.1 -2.4 -2 -4.1 -2.8 c -1.7 -0.8 -3.6 -1.5 -5.7 -2 c -2.1 -0.5 -4.4 -0.8 -6.8 -0.8 c -3.7 0 -6.9 0.6 -9.7 1.8 c -2.8 1.2 -5.1 2.9 -7 5.1 c -1.9 2.2 -3.4 4.8 -4.3 7.8 c -1 3 -1.4 6.3 -1.4 9.9 c 0 3.6 0.5 7 1.5 10 c 1 3 2.5 5.7 4.6 7.9 c 2 2.2 4.6 3.9 7.6 5.2 c 3.1 1.2 6.6 1.9 10.8 1.9 c 3.1 0 5.9 -0.4 8.3 -1.1 c 2.4 -0.7 4.8 -1.8 7.2 -3.3 V 430 h -8.7 v -3.2 h 15.3 V 451 z"/>
			<path class="st1" d="M 582.9 451 h -7.1 v -54.4 h 7.1 v 23.8 h 32.6 v -23.8 h 7.1 V 451 h -7.1 V 424 h -32.6 V 451 z"/>
			<path class="st1" d="M 662.1 451 v -50.2 h -20.8 v -4.3 H 690 v 4.3 h -20.8 V 451 H 662.1 z"/>
		</g>
	</g>
</g>
</svg>
