<?xml version="1.0" encoding="utf-8"?>
<!-- Generator: Adobe Illustrator 21.0.0, SVG Export Plug-In . SVG Version: 6.00 Build 0)  -->
<svg version="1.1" id="Layer_1" xmlns="http://www.w3.org/2000/svg" xmlns:xlink="http://www.w3.org/1999/xlink" x="0px" y="0px"
	 viewBox="0 0 742 500" style="enable-background:new 0 0 742 500;" xml:space="preserve">
<style type="text/css">
	.blue0{fill:#00B1B8;}
	.blue1{fill:#3AA4A9;}
</style>
<g>
	<path class="blue0" d="M180.9,207.1c0.8-0.7,1.6-1.5,2.4-2.2C119.8,203.3,69,221.7,69,221.7s16.6,34.8,51.7,71.2c0.6-1.5,1.3-3,2-4.5
		C136.5,258,156.6,229.9,180.9,207.1z"/>
	<g>
		<path class="blue0" d="M225.2,271.9c-9-13.1-16.3-26.5-22.3-39.9c-22.9,19.8-41.7,42.9-56,68.6l0,0l0,0c-2.1,3.7-4.1,7.6-6,11.4
			c20.5,17.7,45.6,34.4,75.5,46.1c76.3,29.8,125,17.6,142.8-15.5c-8.1,3.9-17.3,6.1-27.2,6.1C301.7,348.8,263.9,328.5,225.2,271.9z"
			/>
		<path class="blue0" d="M581.3,305.2L581.3,305.2c-12.9-24.5-29.8-46.7-50.3-65.9c-6.9,13.9-15.3,27.7-25.4,40.8
			c-13.1,16.9-26.2,30.9-39.4,41.8c-13.2,11-26.5,18.9-39.7,23.7c-9.5,3.5-18.9,5.2-27.9,5.2c-10.7,0-20.9-2.5-30-7.3
			c17.1,31.2,63.7,45,138.5,23c32-9.4,59.9-25.5,83-43.1C587.4,317.2,584.4,311.1,581.3,305.2L581.3,305.2z"/>
		<path class="blue0" d="M554.4,215.8c21.4,22.3,39.2,48.9,51.5,77.6c1.8,4.2,3.4,8.5,5,12.7c35.4-31.9,54.9-62.8,54.9-62.8
			S618.6,219.4,554.4,215.8z"/>
		<path class="blue0" d="M465.2,154.8L465.2,154.8L465.2,154.8c25.2,10.7,48,24.4,67.9,41.1c14.3-44.2,16.1-85.1,16.1-103.1v-1.4
			c-18.1,4.2-66.5,19.2-110.6,51c-0.1,0.1-3,2.1-3.1,2.1c1.3,0.4,1.5,0.4,3.4,1C447.9,148.2,456.7,151.3,465.2,154.8z"/>
		<path class="blue0" d="M446.2,231.9c-1.2,11.4-3.1,22-5.6,31.7c-4.3,16.6-10.3,30.9-18.2,42.5c-9.6,14.3-21.8,24.2-35.6,29.2
			c10.5,2.5,22.3,1.5,34.7-3c23.5-8.7,48.7-29.7,72.8-61c10.3-13.3,18.7-27.6,25.5-42c-21.7-18.1-46.4-32.2-72.7-41.9
			c0.7,6.2,1,12.5,0.8,19.1C447.8,215.4,447.2,223.9,446.2,231.9z"/>
		<path class="blue0" d="M214.4,222.8c5.9,13.8,13.3,27.7,22.5,41.2c34.6,50.5,72.6,75.7,103.8,70c-11.2-4.7-20.7-12.5-28.1-22.1
			c-26.6-34.5-28.7-85.9-22.4-128.1C263,192.3,237.2,205.5,214.4,222.8z"/>
		<path class="blue0" d="M266.1,153c11-4.3,22.3-7.8,33.8-10.6c2.3-0.5,4.3-0.8,4.3-0.8c-0.3-0.2-3.9-3.3-4.2-3.6
			c-11.9-9.3-27.3-18.9-38.9-25.6c-29.5-17.3-56.2-27-68.9-31c-1.5,17.2-3.1,59.7,10.1,107.3C221.5,174.2,242.8,162.2,266.1,153z"/>
		<path class="blue0" d="M365.8,134.7L365.8,134.7L365.8,134.7c19.5,0.2,38.9,2.6,57.7,6.9c-14.5-46.9-40.3-83.3-51.1-97.2
			c-11.9,13-40.3,47.3-57.4,94.8c16.3-3,33-4.5,50-4.5L365.8,134.7z"/>
		<path class="blue0" d="M384.4,321.4c10-4,18.9-11.3,26.3-21.7c10-14,16.9-33.5,20.4-57c1.5-9.4,2.3-19.5,2.6-30.1
			c0.3-10.2-0.2-20.2-1.4-30c-21.8-6.5-44.4-9.9-66.9-9.9h-0.1l-0.1,0c-1.2,0-2.5,0-3.7,0c-19.3,0-38.7,2.5-57.6,7.2
			c-1.6,9.4-2.6,19.1-3,29.1c-0.3,11.4,0,22.1,0.9,32c4,40.7,18.9,68.8,41.8,79.2c3.6,1.7,7.4,2.9,11.4,3.6c2.1,0.4,4.3,0.7,6.5,0.9
			c0.1,0,0.3,0,0.5,0c0.6,0,1.2,0.1,1.8,0.1c0.4,0,0.9,0,1.3,0h1c2.2,0,4.3-0.2,6.4-0.4C376.8,323.9,380.7,322.9,384.4,321.4z"/>
		<path class="blue1" d="M604,312.2c-1.8-5.2-3.8-10.4-6-15.4c-12.8-29.7-31.4-57.1-54.7-80c-0.5-0.5-0.9-0.9-1.4-1.4
			c-3.8-3.7-7.7-7.4-11.8-10.9c-20.3-17.4-43.5-31.4-68.2-41.9c-6.8-2.8-13.7-5.3-20.8-7.5c-4.9-1.6-9.9-3-15-4.2
			c-19.8-4.9-40.1-7.5-60.5-7.7c-0.3,0-0.5,0-0.8,0c-17.8,0-35.7,1.8-53.2,5.3c-4.9,1-9.7,2.1-14.5,3.4c-9.5,2.5-18.8,5.5-28,9.1
			c-23,9.1-44.8,21.4-64.2,36.6c-4.1,3.2-8,6.5-11.9,9.9c-2.2,1.9-4.3,3.9-6.4,5.9c-23.8,22.4-43,49.4-56.4,78.7
			c-1.1,2.5-2.2,5-3.2,7.5c-11.2,27.3-17.6,56.5-18.2,85.5c4.6-27.6,13-54.2,25.4-78.7c1.7-3.3,3.4-6.5,5.2-9.7
			c15-27.2,35-51.3,58.2-71.2c0.6-0.5,1.1-1,1.7-1.4c3.8-3.2,7.7-6.3,11.7-9.3c24.3-18.2,51.8-31.8,80.8-40.3
			c4.7-1.4,9.3-2.6,14.1-3.7c18.3-4.3,37-6.5,55.8-6.5c1.3,0,2.6,0,3.8,0c0,0,0,0,0,0c22.1,0,44.2,3.2,65.5,9.1
			c5,1.4,9.9,3,14.8,4.7c28.1,9.8,54.5,24.5,77.6,43.4c2.9,2.4,5.8,4.9,8.6,7.4c0.9,0.8,1.8,1.6,2.7,2.5c21.6,20,40.1,43.6,53.9,70
			c2.9,5.5,5.7,11.1,8.2,16.8c10.1,22.7,16.9,47.1,20.6,72.2C617.6,363.8,612.8,337.4,604,312.2z"/>
		<g>
			<path class="blue1" d="M78.7,399.6V454h-7.1v-54.4H78.7z"/>
			<path class="blue1" d="M155.7,399.6V455h-0.4l-43.2-42.5h-0.3V454h-3.6v-55.4h0.4l43.2,42.5h0.3v-41.6H155.7z"/>
			<path class="blue1" d="M229.6,399.6V455h-0.4L186,412.4h-0.3V454h-3.6v-55.4h0.4l43.2,42.5h0.3v-41.6H229.6z"/>
			<path class="blue1" d="M291.1,399.6v4.3h-28.1v19.5h24.1v3.6h-24.1v22.8h28.1v4.3H256v-54.4H291.1z"/>
			<path class="blue1" d="M328.2,399.6c3.5,0,6.4,0.5,8.6,1.4c2.3,1,4.1,2.2,5.4,3.6c1.3,1.4,2.3,3,2.8,4.6c0.5,1.7,0.8,3.2,0.8,4.6
				c0,1.6-0.3,3.1-0.8,4.8c-0.5,1.6-1.3,3.1-2.5,4.5c-1.1,1.4-2.6,2.6-4.4,3.5c-1.8,0.9-3.9,1.5-6.4,1.6v0.3l0.8,0.4
				c0.6,0.3,1.2,0.7,1.6,1.2c0.4,0.5,1,1.2,1.7,2.3s1.6,2.5,2.8,4.4c1.2,1.9,2.9,4.4,5,7.6c0.7,1.1,1.4,2.1,2.1,2.9
				c0.7,0.9,1.4,1.6,2.1,2.2c0.7,0.6,1.5,1,2.3,1.4c0.8,0.3,1.8,0.5,2.9,0.5c0.3,0,0.5,0,0.8,0c0.3,0,0.5-0.1,0.8-0.1v2.9
				c-0.7,0.4-1.5,0.7-2.2,0.8c-0.7,0.1-1.7,0.2-2.8,0.2c-1.6,0-2.9-0.2-4-0.6c-1.1-0.4-2.1-1-3-1.7c-0.9-0.7-1.7-1.5-2.4-2.5
				c-0.7-1-1.5-2.1-2.3-3.3l-6.2-9.1c-0.9-1.5-1.7-2.7-2.4-3.7c-0.7-1-1.4-1.8-2.2-2.4c-0.8-0.6-1.7-1.1-2.6-1.3
				c-1-0.3-2.2-0.4-3.6-0.4h-3.4v24h-7.1v-54.4H328.2z M317.7,426.5h8c2.1,0,3.9-0.4,5.5-1.1s2.9-1.7,4-2.8c1.1-1.2,1.9-2.5,2.5-3.9
				c0.5-1.4,0.8-2.8,0.8-4.2c0-1.7-0.3-3.2-0.9-4.6c-0.6-1.4-1.5-2.6-2.6-3.6c-1.1-1-2.5-1.8-4.1-2.4c-1.6-0.6-3.4-0.9-5.3-0.9h-7.9
				V426.5z"/>
			<path class="blue1" d="M409.2,454v-54.4h7.1v50.2h28.1v4.3H409.2z"/>
			<path class="blue1" d="M474,399.6V454h-7.1v-54.4H474z"/>
			<path class="blue1" d="M553.1,454h-6.6v-3.2c-2,1-4.5,2-7.5,2.8c-3,0.9-6.5,1.3-10.4,1.3c-5.2,0-9.7-0.8-13.4-2.4
				c-3.7-1.6-6.8-3.8-9.2-6.5c-2.4-2.7-4.2-5.8-5.4-9.3c-1.2-3.4-1.8-7-1.8-10.7c0-4.3,0.8-8.2,2.3-11.5c1.5-3.4,3.6-6.3,6.3-8.6
				c2.7-2.3,5.9-4.1,9.6-5.4c3.7-1.2,7.8-1.9,12.2-1.9c3.8,0,7.2,0.4,10,1.3c2.8,0.9,5.2,1.9,7.1,3.1c1.9,1.2,3.4,2.6,4.5,4
				c1.1,1.4,1.9,2.7,2.4,3.8h-5.6c-0.3-1.1-1-2.2-2.1-3.2c-1.1-1.1-2.4-2-4.1-2.8c-1.7-0.8-3.6-1.5-5.7-2c-2.1-0.5-4.4-0.8-6.8-0.8
				c-3.7,0-6.9,0.6-9.7,1.8c-2.8,1.2-5.1,2.9-7,5.1c-1.9,2.2-3.4,4.8-4.3,7.8c-1,3-1.4,6.3-1.4,9.9c0,3.6,0.5,7,1.5,10
				c1,3,2.5,5.7,4.6,7.9c2,2.2,4.6,3.9,7.6,5.2c3.1,1.2,6.6,1.9,10.8,1.9c3.1,0,5.9-0.4,8.3-1.1c2.4-0.7,4.8-1.8,7.2-3.3V433h-8.7
				v-3.2h15.3V454z"/>
			<path class="blue1" d="M581.9,454h-7.1v-54.4h7.1v23.8h32.6v-23.8h7.1V454h-7.1V427h-32.6V454z"/>
			<path class="blue1" d="M661.1,454v-50.2h-20.8v-4.3H689v4.3h-20.8V454H661.1z"/>
		</g>
	</g>
</g>
</svg>
